<svg xmlns="http://www.w3.org/2000/svg" viewBox="0 0 60 60" width="60" height="60" aria-hidden="true">
  <!-- Envelope base -->
  <path fill="#4A5568" d="M7 16c0-2.761 2.239-5 5-5h36c2.761 0 5 2.239 5 5v28c0 2.761-2.239 5-5 5H12c-2.761 0-5-2.239-5-5V16zm3.6-1.2l19.7 13.8c.45.32 1.04.32 1.49 0L51.4 14.8H10.6zm41.4 6.2L32.7 35.2a3 3 0 0 1-3.4 0L8 21v23c0 .552.448 1 1 1h42c.552 0 1-.448 1-1V21z"/>
  <!-- Wrench -->
  <path fill="#2B8FD8" d="M38.8 9.8a6.2 6.2 0 0 0-6 7.7L21.4 28.9a2.2 2.2 0 0 0-.5.8l-2.2 5.6c-.24.61.36 1.21.97.97l5.6-2.2c.3-.12.57-.3.8-.5l11.3-11.3a6.2 6.2 0 0 0 7.7-6 6.2 6.2 0 0 0-1.5-4l-3.2 3.2a2 2 0 0 1-2.8 0 2 2 0 0 1 0-2.8l3.2-3.2a6.2 6.2 0 0 0-4-1.5z"/>
</svg>

